<svg class="main-svg" xmlns="http://www.w3.org/2000/svg" xmlns:xlink="http://www.w3.org/1999/xlink" width="700" height="500" style="" viewBox="0 0 700 500"><rect x="0" y="0" width="700" height="500" style="fill: rgb(255, 255, 255); fill-opacity: 1;"/><defs id="defs-f54b96"><g class="clips"><clipPath id="clipf54b96xyplot" class="plotclip"><rect width="540" height="320"/></clipPath><clipPath class="axesclip" id="clipf54b96x"><rect x="80" y="0" width="540" height="500"/></clipPath><clipPath class="axesclip" id="clipf54b96y"><rect x="0" y="100" width="700" height="320"/></clipPath><clipPath class="axesclip" id="clipf54b96xy"><rect x="80" y="100" width="540" height="320"/></clipPath></g><g class="gradients"/><g class="patterns"/></defs><g class="bglayer"/><g class="layer-below"><g class="imagelayer"/><g class="shapelayer"/></g><g class="cartesianlayer"><g class="subplot xy"><g class="layer-subplot"><g class="shapelayer"/><g class="imagelayer"/></g><g class="minor-gridlayer"><g class="x"/><g class="y"/></g><g class="gridlayer"><g class="x"><path class="xgrid crisp" transform="translate(101.32,0)" d="M0,100v320" style="stroke: rgb(238, 238, 238); stroke-opacity: 1; stroke-width: 1px;"/><path class="xgrid crisp" transform="translate(122.63,0)" d="M0,100v320" style="stroke: rgb(238, 238, 238); stroke-opacity: 1; stroke-width: 1px;"/><path class="xgrid crisp" transform="translate(143.95,0)" d="M0,100v320" style="stroke: rgb(238, 238, 238); stroke-opacity: 1; stroke-width: 1px;"/><path class="xgrid crisp" transform="translate(165.26,0)" d="M0,100v320" style="stroke: rgb(238, 238, 238); stroke-opacity: 1; stroke-width: 1px;"/><path class="xgrid crisp" transform="translate(186.57999999999998,0)" d="M0,100v320" style="stroke: rgb(238, 238, 238); stroke-opacity: 1; stroke-width: 1px;"/><path class="xgrid crisp" transform="translate(207.89,0)" d="M0,100v320" style="stroke: rgb(238, 238, 238); stroke-opacity: 1; stroke-width: 1px;"/><path class="xgrid crisp" transform="translate(229.21,0)" d="M0,100v320" style="stroke: rgb(238, 238, 238); stroke-opacity: 1; stroke-width: 1px;"/><path class="xgrid crisp" transform="translate(250.53,0)" d="M0,100v320" style="stroke: rgb(238, 238, 238); stroke-opacity: 1; stroke-width: 1px;"/><path class="xgrid crisp" transform="translate(271.84000000000003,0)" d="M0,100v320" style="stroke: rgb(238, 238, 238); stroke-opacity: 1; stroke-width: 1px;"/><path class="xgrid crisp" transform="translate(293.15999999999997,0)" d="M0,100v320" style="stroke: rgb(238, 238, 238); stroke-opacity: 1; stroke-width: 1px;"/><path class="xgrid crisp" transform="translate(314.47,0)" d="M0,100v320" style="stroke: rgb(238, 238, 238); stroke-opacity: 1; stroke-width: 1px;"/><path class="xgrid crisp" transform="translate(335.78999999999996,0)" d="M0,100v320" style="stroke: rgb(238, 238, 238); stroke-opacity: 1; stroke-width: 1px;"/><path class="xgrid crisp" transform="translate(357.11,0)" d="M0,100v320" style="stroke: rgb(238, 238, 238); stroke-opacity: 1; stroke-width: 1px;"/><path class="xgrid crisp" transform="translate(378.42,0)" d="M0,100v320" style="stroke: rgb(238, 238, 238); stroke-opacity: 1; stroke-width: 1px;"/><path class="xgrid crisp" transform="translate(399.74,0)" d="M0,100v320" style="stroke: rgb(238, 238, 238); stroke-opacity: 1; stroke-width: 1px;"/><path class="xgrid crisp" transform="translate(421.05,0)" d="M0,100v320" style="stroke: rgb(238, 238, 238); stroke-opacity: 1; stroke-width: 1px;"/><path class="xgrid crisp" transform="translate(442.37,0)" d="M0,100v320" style="stroke: rgb(238, 238, 238); stroke-opacity: 1; stroke-width: 1px;"/><path class="xgrid crisp" transform="translate(463.68,0)" d="M0,100v320" style="stroke: rgb(238, 238, 238); stroke-opacity: 1; stroke-width: 1px;"/><path class="xgrid crisp" transform="translate(485,0)" d="M0,100v320" style="stroke: rgb(238, 238, 238); stroke-opacity: 1; stroke-width: 1px;"/><path class="xgrid crisp" transform="translate(506.32,0)" d="M0,100v320" style="stroke: rgb(238, 238, 238); stroke-opacity: 1; stroke-width: 1px;"/><path class="xgrid crisp" transform="translate(527.63,0)" d="M0,100v320" style="stroke: rgb(238, 238, 238); stroke-opacity: 1; stroke-width: 1px;"/><path class="xgrid crisp" transform="translate(548.95,0)" d="M0,100v320" style="stroke: rgb(238, 238, 238); stroke-opacity: 1; stroke-width: 1px;"/><path class="xgrid crisp" transform="translate(570.26,0)" d="M0,100v320" style="stroke: rgb(238, 238, 238); stroke-opacity: 1; stroke-width: 1px;"/><path class="xgrid crisp" transform="translate(591.5799999999999,0)" d="M0,100v320" style="stroke: rgb(238, 238, 238); stroke-opacity: 1; stroke-width: 1px;"/><path class="xgrid crisp" transform="translate(612.89,0)" d="M0,100v320" style="stroke: rgb(238, 238, 238); stroke-opacity: 1; stroke-width: 1px;"/></g><g class="y"><path class="ygrid crisp" transform="translate(0,354.13)" d="M80,0h540" style="stroke: rgb(238, 238, 238); stroke-opacity: 1; stroke-width: 1px;"/><path class="ygrid crisp" transform="translate(0,298.1)" d="M80,0h540" style="stroke: rgb(238, 238, 238); stroke-opacity: 1; stroke-width: 1px;"/><path class="ygrid crisp" transform="translate(0,242.07)" d="M80,0h540" style="stroke: rgb(238, 238, 238); stroke-opacity: 1; stroke-width: 1px;"/><path class="ygrid crisp" transform="translate(0,186.04000000000002)" d="M80,0h540" style="stroke: rgb(238, 238, 238); stroke-opacity: 1; stroke-width: 1px;"/><path class="ygrid crisp" transform="translate(0,130.01)" d="M80,0h540" style="stroke: rgb(238, 238, 238); stroke-opacity: 1; stroke-width: 1px;"/></g></g><g class="zerolinelayer"><path class="yzl zl crisp" transform="translate(0,410.16)" d="M80,0h540" style="stroke: rgb(68, 68, 68); stroke-opacity: 1; stroke-width: 1px;"/></g><g class="layer-between"><g class="shapelayer"/><g class="imagelayer"/></g><path class="xlines-below"/><path class="ylines-below"/><g class="overlines-below"/><g class="xaxislayer-below"/><g class="yaxislayer-below"/><g class="overaxes-below"/><g class="overplot"><g class="xy" transform="translate(80,100)" clip-path="url(#clipf54b96xyplot)"><g class="scatterlayer mlayer"><g class="trace scatter traceded415" style="stroke-miterlimit: 2; opacity: 1;"><g class="fills"/><g class="errorbars"/><g class="lines"><path class="js-line" d="M0,168.4L3.55,142.35L7.11,143.75L10.66,111.81L14.21,226.12L17.76,202.02L21.32,149.91L24.87,154.12L28.42,180.73L31.97,142.35L35.53,262.54L39.08,187.74L42.63,206.79L46.18,131.14L49.74,133.11L53.29,182.69L56.84,16L60.39,181.57L63.95,247.97L67.5,295.04L71.05,231.72L74.61,167.84L78.16,119.94L81.71,165.32L85.26,65.87L88.82,149.63L92.37,265.62L95.92,262.82L99.47,165.6L103.03,178.21L106.58,136.75L110.13,155.8L113.68,192.78L117.24,106.49L120.79,111.81L124.34,83.52L127.89,118.26L131.45,249.65L135,276.82L138.55,181.29L142.11,137.59L145.66,188.3L149.21,199.22L152.76,171.77L156.32,116.02L159.87,249.65L163.42,281.03L166.97,191.66L170.53,133.11L174.08,103.69L177.63,52.14L181.18,132.54L184.74,249.93L188.29,225.84L191.84,279.63L195.39,183.25L198.95,108.45L202.5,142.63L206.05,191.66L209.61,205.11L213.16,253.85L216.71,174.57L220.26,151.04L223.82,172.05L227.37,169.25L230.92,252.45L234.47,283.83L238.03,197.54L241.58,154.4L245.13,119.1L248.68,173.45L252.24,190.26L255.79,148.79L259.34,240.96L262.89,283.55L266.45,191.1L270,128.9L273.55,161.12L277.11,174.57L280.66,171.49L284.21,251.05L287.76,276.54L291.32,202.58L294.87,154.4L298.42,167.84L301.97,175.41L305.53,264.78L309.08,200.62L312.63,270.1L316.18,290.55L319.74,190.82L323.29,128.06L326.84,115.74L330.39,233.68L333.95,242.65L337.5,177.37L341.05,129.46L344.61,176.53L348.16,160.84L351.71,109.01L355.26,240.12L358.82,250.21L362.37,195.3L369.47,53.82L373.03,82.96L376.58,131.42L380.13,143.19L383.68,232.28L387.24,275.98L394.34,133.95L397.89,136.47L401.45,141.51L405,259.74L408.55,158.88L412.11,242.09L415.66,272.06L419.21,175.69L422.76,172.05L426.32,103.69L429.87,165.6L433.42,142.63L436.97,267.3L440.53,165.88L444.08,171.77L447.63,120.5L451.18,144.03L454.74,252.45L458.29,275.42L461.84,182.13L465.39,117.42L468.95,114.05L472.5,98.93L476.05,272.06L479.61,156.08L483.16,216.59L486.71,249.09L490.26,165.04L493.82,42.89L497.37,116.86L500.92,51.3L504.47,93.6L508.03,229.48L511.58,181.01L515.13,165.88L518.68,155.24L522.24,81.84L525.79,127.5L529.34,101.73L532.89,229.48L536.45,283.83L540,178.77" style="vector-effect: none; fill: none; stroke: rgb(99, 110, 250); stroke-opacity: 1; stroke-width: 2px; opacity: 1;"/></g><g class="points"/><g class="text"/></g></g></g></g><path class="xlines-above crisp" d="M0,0" style="fill: none;"/><path class="ylines-above crisp" d="M0,0" style="fill: none;"/><g class="overlines-above"/><g class="xaxislayer-above"><g class="xtick"><text text-anchor="start" x="0" y="437" transform="translate(80,0) rotate(90,0,429)" style="font-family: 'Helvetica Neue', Helvetica, sans-serif; font-size: 16px; fill: rgb(51, 51, 51); fill-opacity: 1; white-space: pre; opacity: 1;">5/1/2024</text></g><g class="xtick"><text text-anchor="start" x="0" y="437" transform="translate(101.32,0) rotate(90,0,429)" style="font-family: 'Helvetica Neue', Helvetica, sans-serif; font-size: 16px; fill: rgb(51, 51, 51); fill-opacity: 1; white-space: pre; opacity: 1;">5/15/2024</text></g><g class="xtick"><text text-anchor="start" x="0" y="437" transform="translate(122.63,0) rotate(90,0,429)" style="font-family: 'Helvetica Neue', Helvetica, sans-serif; font-size: 16px; fill: rgb(51, 51, 51); fill-opacity: 1; white-space: pre; opacity: 1;">5/20/2024</text></g><g class="xtick"><text text-anchor="start" x="0" y="437" transform="translate(143.95,0) rotate(90,0,429)" style="font-family: 'Helvetica Neue', Helvetica, sans-serif; font-size: 16px; fill: rgb(51, 51, 51); fill-opacity: 1; white-space: pre; opacity: 1;">5/26/2024</text></g><g class="xtick"><text text-anchor="start" x="0" y="437" transform="translate(165.26,0) rotate(90,0,429)" style="font-family: 'Helvetica Neue', Helvetica, sans-serif; font-size: 16px; fill: rgb(51, 51, 51); fill-opacity: 1; white-space: pre; opacity: 1;">5/31/2024</text></g><g class="xtick"><text text-anchor="start" x="0" y="437" transform="translate(186.57999999999998,0) rotate(90,0,429)" style="font-family: 'Helvetica Neue', Helvetica, sans-serif; font-size: 16px; fill: rgb(51, 51, 51); fill-opacity: 1; white-space: pre; opacity: 1;">5/9/2024</text></g><g class="xtick"><text text-anchor="start" x="0" y="437" transform="translate(207.89,0) rotate(90,0,429)" style="font-family: 'Helvetica Neue', Helvetica, sans-serif; font-size: 16px; fill: rgb(51, 51, 51); fill-opacity: 1; white-space: pre; opacity: 1;">6/14/2024</text></g><g class="xtick"><text text-anchor="start" x="0" y="437" transform="translate(229.21,0) rotate(90,0,429)" style="font-family: 'Helvetica Neue', Helvetica, sans-serif; font-size: 16px; fill: rgb(51, 51, 51); fill-opacity: 1; white-space: pre; opacity: 1;">6/2/2024</text></g><g class="xtick"><text text-anchor="start" x="0" y="437" transform="translate(250.53,0) rotate(90,0,429)" style="font-family: 'Helvetica Neue', Helvetica, sans-serif; font-size: 16px; fill: rgb(51, 51, 51); fill-opacity: 1; white-space: pre; opacity: 1;">6/25/2024</text></g><g class="xtick"><text text-anchor="start" x="0" y="437" transform="translate(271.84000000000003,0) rotate(90,0,429)" style="font-family: 'Helvetica Neue', Helvetica, sans-serif; font-size: 16px; fill: rgb(51, 51, 51); fill-opacity: 1; white-space: pre; opacity: 1;">6/30/2024</text></g><g class="xtick"><text text-anchor="start" x="0" y="437" transform="translate(293.15999999999997,0) rotate(90,0,429)" style="font-family: 'Helvetica Neue', Helvetica, sans-serif; font-size: 16px; fill: rgb(51, 51, 51); fill-opacity: 1; white-space: pre; opacity: 1;">6/9/2024</text></g><g class="xtick"><text text-anchor="start" x="0" y="437" transform="translate(314.47,0) rotate(90,0,429)" style="font-family: 'Helvetica Neue', Helvetica, sans-serif; font-size: 16px; fill: rgb(51, 51, 51); fill-opacity: 1; white-space: pre; opacity: 1;">7/14/2024</text></g><g class="xtick"><text text-anchor="start" x="0" y="437" transform="translate(335.78999999999996,0) rotate(90,0,429)" style="font-family: 'Helvetica Neue', Helvetica, sans-serif; font-size: 16px; fill: rgb(51, 51, 51); fill-opacity: 1; white-space: pre; opacity: 1;">7/2/2024</text></g><g class="xtick"><text text-anchor="start" x="0" y="437" transform="translate(357.11,0) rotate(90,0,429)" style="font-family: 'Helvetica Neue', Helvetica, sans-serif; font-size: 16px; fill: rgb(51, 51, 51); fill-opacity: 1; white-space: pre; opacity: 1;">7/25/2024</text></g><g class="xtick"><text text-anchor="start" x="0" y="437" transform="translate(378.42,0) rotate(90,0,429)" style="font-family: 'Helvetica Neue', Helvetica, sans-serif; font-size: 16px; fill: rgb(51, 51, 51); fill-opacity: 1; white-space: pre; opacity: 1;">7/30/2024</text></g><g class="xtick"><text text-anchor="start" x="0" y="437" transform="translate(399.74,0) rotate(90,0,429)" style="font-family: 'Helvetica Neue', Helvetica, sans-serif; font-size: 16px; fill: rgb(51, 51, 51); fill-opacity: 1; white-space: pre; opacity: 1;">7/8/2024</text></g><g class="xtick"><text text-anchor="start" x="0" y="437" transform="translate(421.05,0) rotate(90,0,429)" style="font-family: 'Helvetica Neue', Helvetica, sans-serif; font-size: 16px; fill: rgb(51, 51, 51); fill-opacity: 1; white-space: pre; opacity: 1;">8/13/2024</text></g><g class="xtick"><text text-anchor="start" x="0" y="437" transform="translate(442.37,0) rotate(90,0,429)" style="font-family: 'Helvetica Neue', Helvetica, sans-serif; font-size: 16px; fill: rgb(51, 51, 51); fill-opacity: 1; white-space: pre; opacity: 1;">8/19/2024</text></g><g class="xtick"><text text-anchor="start" x="0" y="437" transform="translate(463.68,0) rotate(90,0,429)" style="font-family: 'Helvetica Neue', Helvetica, sans-serif; font-size: 16px; fill: rgb(51, 51, 51); fill-opacity: 1; white-space: pre; opacity: 1;">8/24/2024</text></g><g class="xtick"><text text-anchor="start" x="0" y="437" transform="translate(485,0) rotate(90,0,429)" style="font-family: 'Helvetica Neue', Helvetica, sans-serif; font-size: 16px; fill: rgb(51, 51, 51); fill-opacity: 1; white-space: pre; opacity: 1;">8/3/2024</text></g><g class="xtick"><text text-anchor="start" x="0" y="437" transform="translate(506.32,0) rotate(90,0,429)" style="font-family: 'Helvetica Neue', Helvetica, sans-serif; font-size: 16px; fill: rgb(51, 51, 51); fill-opacity: 1; white-space: pre; opacity: 1;">8/7/2024</text></g><g class="xtick"><text text-anchor="start" x="0" y="437" transform="translate(527.63,0) rotate(90,0,429)" style="font-family: 'Helvetica Neue', Helvetica, sans-serif; font-size: 16px; fill: rgb(51, 51, 51); fill-opacity: 1; white-space: pre; opacity: 1;">9/12/2024</text></g><g class="xtick"><text text-anchor="start" x="0" y="437" transform="translate(548.95,0) rotate(90,0,429)" style="font-family: 'Helvetica Neue', Helvetica, sans-serif; font-size: 16px; fill: rgb(51, 51, 51); fill-opacity: 1; white-space: pre; opacity: 1;">9/18/2024</text></g><g class="xtick"><text text-anchor="start" x="0" y="437" transform="translate(570.26,0) rotate(90,0,429)" style="font-family: 'Helvetica Neue', Helvetica, sans-serif; font-size: 16px; fill: rgb(51, 51, 51); fill-opacity: 1; white-space: pre; opacity: 1;">9/23/2024</text></g><g class="xtick"><text text-anchor="start" x="0" y="437" transform="translate(591.5799999999999,0) rotate(90,0,429)" style="font-family: 'Helvetica Neue', Helvetica, sans-serif; font-size: 16px; fill: rgb(51, 51, 51); fill-opacity: 1; white-space: pre; opacity: 1;">9/29/2024</text></g><g class="xtick"><text text-anchor="start" x="0" y="437" transform="translate(612.89,0) rotate(90,0,429)" style="font-family: 'Helvetica Neue', Helvetica, sans-serif; font-size: 16px; fill: rgb(51, 51, 51); fill-opacity: 1; white-space: pre; opacity: 1;">9/7/2024</text></g></g><g class="yaxislayer-above"><g class="ytick"><text text-anchor="end" x="79" y="5.6" transform="translate(0,410.16)" style="font-family: 'Helvetica Neue', Helvetica, sans-serif; font-size: 16px; fill: rgb(51, 51, 51); fill-opacity: 1; white-space: pre; opacity: 1;">0</text></g><g class="ytick"><text text-anchor="end" x="79" y="5.6" style="font-family: 'Helvetica Neue', Helvetica, sans-serif; font-size: 16px; fill: rgb(51, 51, 51); fill-opacity: 1; white-space: pre; opacity: 1;" transform="translate(0,354.13)">200</text></g><g class="ytick"><text text-anchor="end" x="79" y="5.6" style="font-family: 'Helvetica Neue', Helvetica, sans-serif; font-size: 16px; fill: rgb(51, 51, 51); fill-opacity: 1; white-space: pre; opacity: 1;" transform="translate(0,298.1)">400</text></g><g class="ytick"><text text-anchor="end" x="79" y="5.6" style="font-family: 'Helvetica Neue', Helvetica, sans-serif; font-size: 16px; fill: rgb(51, 51, 51); fill-opacity: 1; white-space: pre; opacity: 1;" transform="translate(0,242.07)">600</text></g><g class="ytick"><text text-anchor="end" x="79" y="5.6" style="font-family: 'Helvetica Neue', Helvetica, sans-serif; font-size: 16px; fill: rgb(51, 51, 51); fill-opacity: 1; white-space: pre; opacity: 1;" transform="translate(0,186.04000000000002)">800</text></g><g class="ytick"><text text-anchor="end" x="79" y="5.6" style="font-family: 'Helvetica Neue', Helvetica, sans-serif; font-size: 16px; fill: rgb(51, 51, 51); fill-opacity: 1; white-space: pre; opacity: 1;" transform="translate(0,130.01)">1000</text></g></g><g class="overaxes-above"/></g></g><g class="polarlayer"/><g class="smithlayer"/><g class="ternarylayer"/><g class="geolayer"/><g class="funnelarealayer"/><g class="pielayer"/><g class="iciclelayer"/><g class="treemaplayer"/><g class="sunburstlayer"/><g class="glimages"/><defs id="topdefs-f54b96"><g class="clips"/></defs><g class="layer-above"><g class="imagelayer"/><g class="shapelayer"/></g><g class="infolayer"><g class="g-gtitle"><text class="gtitle" x="350" y="50" text-anchor="middle" dy="0em" style="opacity: 1; font-family: HelveticaNeue-CondensedBold, Helvetica, sans-serif; font-size: 30px; fill: rgb(51, 51, 51); fill-opacity: 1; white-space: pre;">Job Posting Trends Over Time</text></g><g class="g-xtitle" transform="translate(0,9)"><text class="xtitle" x="350" y="487" text-anchor="middle" style="opacity: 1; font-family: 'Helvetica Neue', Helvetica, sans-serif; font-size: 19px; fill: rgb(51, 51, 51); fill-opacity: 1; white-space: pre;">POSTED</text></g><g class="g-ytitle"><text class="ytitle" transform="rotate(-90,32,260)" x="32" y="260" text-anchor="middle" style="opacity: 1; font-family: 'Helvetica Neue', Helvetica, sans-serif; font-size: 19px; fill: rgb(51, 51, 51); fill-opacity: 1; white-space: pre;">job_count</text></g></g></svg>